<svg width="45px" height="45px" viewBox="-14.64 0 152 152" xmlns="http://www.w3.org/2000/svg">

<defs>

<style>.cls-1{fill: #ffffff}</style>

</defs>

<g id="Layer_2" data-name="Layer 2">

<g id="Layer_1-2" data-name="Layer 1">

<path d="M120.38,3.34c1.63,7.34,1,15,1.24,22.32a8.25,8.25,0,0,1-7.07,3.21c-4.29,0-8.57.18-12.85.35-12.27.51-24.58.54-36.77,1.79-6,.61-11.92.41-17.84,1.09-9.34,1.08-18.66,2.3-28,3.31-5.92.64-12,2-17.4-2A35.08,35.08,0,0,1,2.76,9c15.09.86,29.77-3.37,44.75-5.12C60,2.41,72.55,1.79,85.09,1,93.64.5,102.21.36,110.77,0,114.31-.12,117.62.34,120.38,3.34ZM8.71,17.1C7.46,20.52,6.91,23.39,9,26c4.63,0,8.92.25,13.17-.05,6.82-.5,13.61-1.52,20.43-2,8.55-.63,17.11-1.32,25.67-1.33,12.92,0,25.67-1.44,38.42-3.24,1.93-.27,3.85-.57,6-.88.88-3.44,1-6.41-1.06-9.53-7-1-14.15-.13-21.21.21-10.55.5-21.07,1.49-31.6,2.34-3.11.25-6.2.77-9.31,1.09-8.8.92-17.39,3.33-26.36,3.17C18.39,15.69,13.6,16.62,8.71,17.1Z"/>

<path d="M.86,125.38c7.06-1.11,14-2.43,21.07-3.26,13.9-1.63,27.81-3.19,41.74-4.4,12.8-1.11,25.47-3.67,38.39-3.21,4.57.16,9.09.11,13.31,2.5,2.19,1.24,3.77,2.66,4,5.1.65,5.94,1.38,11.93-1.64,17.59-9.82,3.7-20,5.2-30.18,6.27-13.92,1.47-27.89,2.5-41.83,3.72-8.25.72-16.49,1.56-24.75,2.12a120.68,120.68,0,0,1-12.76.05,6.93,6.93,0,0,1-6.64-5.65C.15,139.51-.71,132.74.86,125.38ZM110.16,124a140.1,140.1,0,0,0-29.59-.07c-10.79,1.16-21.57,2.42-32.35,3.7Q30,129.82,11.69,132.16c-1.3.17-2.5,1-4.09,1.68.28,1.69.45,3.06.73,4.41.35,1.62.79,3.22,1.2,4.92a22.21,22.21,0,0,0,3.66.48c10.28-.49,20.57-.9,30.83-1.64s20.5-1.71,30.72-2.78c8-.82,15.88-1.85,23.79-3a36.77,36.77,0,0,0,11.63-3.73Z"/>

<path d="M.79,67.26c4.13-.55,7.8-1.21,11.5-1.49,13.14-1,26.28-1.89,39.43-2.79C66.56,62,81.4,60.85,96.25,60a136.78,136.78,0,0,1,16.32.23c6,.37,9.28,4,9.65,9.94.19,3.13.36,6.26.49,9.39.12,2.8-.81,4.09-3.89,4.64a85.93,85.93,0,0,1-11.06,1.39c-13.15.63-26.23,1.81-39.31,3.26C52,90.69,35.36,91.56,18.83,93A25.13,25.13,0,0,1,4.74,90.14a9,9,0,0,1-3.45-3.53C.33,84.85.21,71.44.79,67.26Zm112.68,1.86c-2-.44-3.59-1.17-5.22-1.13-31.12.93-62.22,2.15-93.18,5.76a49.5,49.5,0,0,0-6,1.46v7.94c2.34.44,4.26,1.12,6.17,1.1,5.15,0,10.3-.26,15.43-.67,13.66-1.1,27.31-2.33,41-3.53,2-.17,4-.47,6-.6,6.82-.47,13.66-.77,20.47-1.35,5.07-.44,10.29,0,15.37-2Z"/>

<path class="cls-1" d="M8.71,17.1c4.89-.48,9.68-1.41,14.46-1.33,9,.16,17.56-2.25,26.36-3.17,3.11-.32,6.2-.84,9.31-1.09,10.53-.85,21-1.84,31.6-2.34,7.06-.34,14.17-1.23,21.21-.21,2,3.12,1.94,6.09,1.06,9.53-2.13.31-4,.61-6,.88C94,21.17,81.23,22.6,68.31,22.61c-8.56,0-17.12.7-25.67,1.33-6.82.5-13.61,1.52-20.43,2C18,26.26,13.67,26,9,26,6.91,23.39,7.46,20.52,8.71,17.1Z"/>

<path class="cls-1" d="M110.16,124v8.51a36.77,36.77,0,0,1-11.63,3.73c-7.91,1.13-15.84,2.16-23.79,3C64.52,140.3,54.28,141.28,44,142s-20.55,1.15-30.83,1.64a22.21,22.21,0,0,1-3.66-.48c-.41-1.7-.85-3.3-1.2-4.92-.28-1.35-.45-2.72-.73-4.41,1.59-.67,2.79-1.51,4.09-1.68q18.26-2.35,36.53-4.52c10.78-1.28,21.56-2.54,32.35-3.7A140.1,140.1,0,0,1,110.16,124Z"/>

<path class="cls-1" d="M113.47,69.12v7c-5.08,2-10.3,1.57-15.37,2-6.81.58-13.65.88-20.47,1.35-2,.13-4,.43-6,.6-13.65,1.2-27.3,2.43-41,3.53-5.13.41-10.28.62-15.43.67-1.91,0-3.83-.66-6.17-1.1V75.21a49.5,49.5,0,0,1,6-1.46c31-3.61,62.06-4.83,93.18-5.76C109.88,68,111.52,68.68,113.47,69.12Z"/>

</g>

</g>

</svg>
