<svg xmlns="http://www.w3.org/2000/svg" xmlns:xlink="http://www.w3.org/1999/xlink" version="1.1" width="90" height="90" viewBox="0 0 90 90" xml:space="preserve">

<defs>
</defs>
<g style="stroke: none; stroke-width: 0; stroke-dasharray: none; stroke-linecap: butt; stroke-linejoin: miter; stroke-miterlimit: 10; fill: none; fill-rule: nonzero; opacity: 1;" >
	<path d="M 46.438 87.38 c 0.26 -0.147 0.509 -0.322 0.723 -0.554 C 46.947 87.058 46.699 87.233 46.438 87.38 z" style="stroke: none; stroke-width: 1; stroke-dasharray: none; stroke-linecap: butt; stroke-linejoin: miter; stroke-miterlimit: 10; fill: #999AC6; fill-rule: nonzero; opacity: 1;" transform=" matrix(1 0 0 1 0 0) " stroke-linecap="round" />
	<path d="M 43.97 70.599 c 0.277 0.301 0.654 0.451 1.03 0.451 c 1.977 5.399 1.859 10.983 0 16.722 c -0.79 0 -1.58 -0.316 -2.162 -0.947 L 0.798 41.216 c -1.129 -1.225 -1.051 -3.132 0.174 -4.261 l 4.263 -3.93 c 1.225 -1.129 3.132 -1.051 4.261 0.173 L 43.97 70.599 z" style="stroke: none; stroke-width: 1; stroke-dasharray: none; stroke-linecap: butt; stroke-linejoin: miter; stroke-miterlimit: 10; fill: #8E8FC6; fill-rule: nonzero; opacity: 1;" transform=" matrix(1 0 0 1 0 0) " stroke-linecap="round" />
	<path d="M 46.03 70.599 c -0.277 0.301 -0.654 0.451 -1.03 0.451 v 16.722 c 0.79 0 1.58 -0.316 2.162 -0.947 l 42.04 -45.609 c 1.129 -1.225 1.051 -3.132 -0.174 -4.261 l -4.263 -3.93 c -1.225 -1.129 -3.132 -1.051 -4.261 0.173 L 46.03 70.599 z" style="stroke: none; stroke-width: 1; stroke-dasharray: none; stroke-linecap: butt; stroke-linejoin: miter; stroke-miterlimit: 10; fill: #7475B6; fill-rule: nonzero; opacity: 1;" transform=" matrix(1 0 0 1 0 0) " stroke-linecap="round" />
	<path d="M 46.438 57.38 c 0.26 -0.147 0.509 -0.322 0.723 -0.554 C 46.947 57.058 46.699 57.233 46.438 57.38 z" style="stroke: none; stroke-width: 1; stroke-dasharray: none; stroke-linecap: butt; stroke-linejoin: miter; stroke-miterlimit: 10; fill: #999AC6; fill-rule: nonzero; opacity: 1;" transform=" matrix(1 0 0 1 0 0) " stroke-linecap="round" />
	<path d="M 43.97 40.599 c 0.277 0.301 0.654 0.451 1.03 0.451 c 1.977 5.399 1.859 10.983 0 16.722 c -0.79 0 -1.58 -0.316 -2.162 -0.947 L 0.798 11.216 c -1.129 -1.225 -1.051 -3.132 0.174 -4.261 l 4.263 -3.93 C 6.46 1.897 8.367 1.975 9.496 3.199 L 43.97 40.599 z" style="stroke: none; stroke-width: 1; stroke-dasharray: none; stroke-linecap: butt; stroke-linejoin: miter; stroke-miterlimit: 10; fill: #8E8FC6; fill-rule: nonzero; opacity: 1;" transform=" matrix(1 0 0 1 0 0) " stroke-linecap="round" />
	<path d="M 46.03 40.599 c -0.277 0.301 -0.654 0.451 -1.03 0.451 v 16.722 c 0.79 0 1.58 -0.316 2.162 -0.947 l 42.04 -45.609 c 1.129 -1.225 1.051 -3.132 -0.174 -4.261 l -4.263 -3.93 c -1.225 -1.129 -3.132 -1.051 -4.261 0.173 L 46.03 40.599 z" style="stroke: none; stroke-width: 1; stroke-dasharray: none; stroke-linecap: butt; stroke-linejoin: miter; stroke-miterlimit: 10; fill: #7475B6; fill-rule: nonzero; opacity: 1;" transform=" matrix(1 0 0 1 0 0) " stroke-linecap="round" />
</g>
</svg>
