<svg width="22" height="22" viewBox="0 0 22 22" fill="none" xmlns="http://www.w3.org/2000/svg">
<path d="M11 22C17.0751 22 22 17.0751 22 11C22 4.92487 17.0751 0 11 0C4.92487 0 0 4.92487 0 11C0 17.0751 4.92487 22 11 22Z" fill="url(#paint0_radial_1_229)"/>
<path d="M11 7.05833C13.4047 7.05833 15.3542 5.72451 15.3542 4.07916C15.3542 2.43381 13.4047 1.1 11 1.1C8.59526 1.1 6.64583 2.43381 6.64583 4.07916C6.64583 5.72451 8.59526 7.05833 11 7.05833Z" fill="url(#paint1_radial_1_229)"/>
<defs>
<radialGradient id="paint0_radial_1_229" cx="0" cy="0" r="1" gradientUnits="userSpaceOnUse" gradientTransform="translate(11.0782 4.13453) scale(12.3835)">
<stop stop-color="#8ED8F8"/>
<stop offset="0.93" stop-color="#395F6F"/>
<stop offset="0.9511" stop-color="#3F6677"/>
<stop offset="0.9882" stop-color="#4D798D"/>
<stop offset="1" stop-color="#528095"/>
</radialGradient>
<radialGradient id="paint1_radial_1_229" cx="0" cy="0" r="1" gradientUnits="userSpaceOnUse" gradientTransform="translate(10.9951 4.09734) scale(4.37704 2.99521)">
<stop stop-color="white"/>
<stop offset="1" stop-color="white" stop-opacity="0"/>
</radialGradient>
</defs>
</svg>
