<svg width="162" height="27" viewBox="0 0 162 27" fill="none" xmlns="http://www.w3.org/2000/svg">
<path d="M81.3 13.4H19.4V26.7H81.3V13.4Z" fill="url(#paint0_linear_1_675)"/>
<path d="M81.3 6.2H19.4V13.3H81.3V6.2Z" fill="url(#paint1_linear_1_675)"/>
<path d="M76 6H75.9L73.1 5.5C72.9 5.5 72.7 5.3 72.6 5.2L70.7 2.4L60.3 5.1C59.9 5.2 59.6 5 59.4 4.7L58.5 2.8L52.5 2L53.2 2.9C53.4 3.1 53.4 3.4 53.3 3.6C53.2 3.8 53 4 52.8 4.1L47.5 5.5C47.3 5.5 47.1 5.5 47 5.4L41.2 2.5L38.3 5.3C38.1 5.5 37.9 5.5 37.7 5.5L33.3 4.7C33 4.7 32.8 4.4 32.7 4.2L32.1 2.2L28.1 5.8C27.8 6.1 27.4 6.1 27.1 5.8L23.4 2.6L22.8 4.9C22.7 5.2 22.5 5.4 22.2 5.4C21.9 5.5 21.6 5.3 21.5 5.1L18.8 1.6C18.5 1.3 18.6 0.800001 18.9 0.500001C19.2 0.200001 19.7 0.299999 20 0.599999L21.7 2.9L22.2 0.900001C22.3 0.700001 22.5 0.500001 22.7 0.400001C22.9 0.300001 23.2 0.399999 23.4 0.599999L27.5 4.2L31.9 0.2C32.1 -1.93715e-07 32.4 0 32.6 0C32.8 0.1 33 0.300001 33.1 0.500001L33.9 3.2L37.5 3.8L40.5 0.900001C40.7 0.700001 41.1 0.6 41.4 0.8L47.4 3.9L51.3 2.9L50.1 1.5C49.9 1.3 49.9 0.9 50 0.7C50.1 0.5 50.4 0.3 50.8 0.3L59.1 1.4C59.4 1.4 59.6 1.6 59.7 1.8L60.5 3.5L70.8 0.8C71.1 0.7 71.4 0.799999 71.6 1.1L73.6 4L75.5 4.4L77 1.1C77.1 0.899999 77.3 0.7 77.5 0.7C77.7 0.7 78 0.700001 78.2 0.900001L81.7 4.2C82 4.5 82 5 81.7 5.3C81.4 5.6 80.9 5.6 80.6 5.3L77.9 2.7L76.6 5.6C76.6 5.8 76.3 6 76 6Z" fill="#8DC63F"/>
<path d="M19.4 0.1H13.3C5.99999 0.1 0 6.1 0 13.4C0 20.7 5.99999 26.7 13.3 26.7L19.4 26.7V0.1Z" fill="url(#paint2_linear_1_675)"/>
<path d="M19.4 0.1H18.6V26.7L19.4 26.7V0.1Z" fill="#395F6F"/>
<path d="M9.10001 8.9C7.90001 8.9 7 8 7 6.8C7 5.6 7.90001 4.7 9.10001 4.7H18.6V8.9H9.10001Z" fill="url(#paint3_linear_1_675)"/>
<path d="M141.681 13.4H79.7811V26.7H141.681V13.4Z" fill="url(#paint4_linear_1_675)"/>
<path d="M141.681 6.2H79.7811V13.3H141.681V6.2Z" fill="url(#paint5_linear_1_675)"/>
<path d="M136.381 6H136.281L133.481 5.5C133.281 5.5 133.081 5.3 132.981 5.2L131.081 2.4L120.681 5.1C120.281 5.2 119.981 5 119.781 4.7L118.881 2.8L112.881 2L113.581 2.9C113.781 3.1 113.781 3.4 113.681 3.6C113.581 3.8 113.381 4 113.181 4.1L107.881 5.5C107.681 5.5 107.481 5.5 107.381 5.4L101.581 2.5L98.6811 5.3C98.4811 5.5 98.2811 5.5 98.0811 5.5L93.6811 4.7C93.3811 4.7 93.1811 4.4 93.0811 4.2L92.4812 2.2L88.4812 5.8C88.1812 6.1 87.7812 6.1 87.4812 5.8L83.7811 2.6L83.1811 4.9C83.0811 5.2 82.8811 5.4 82.5811 5.4C82.2811 5.5 81.9811 5.3 81.8811 5.1L79.1811 1.6C78.8811 1.3 78.9811 0.800001 79.2811 0.500001C79.5811 0.200001 80.0811 0.299999 80.3811 0.599999L82.0811 2.9L82.5811 0.900001C82.6811 0.700001 82.8811 0.500001 83.0811 0.400001C83.2811 0.300001 83.5811 0.399999 83.7811 0.599999L87.8811 4.2L92.2811 0.2C92.4811 -1.93715e-07 92.7812 0 92.9812 0C93.1812 0.1 93.3812 0.300001 93.4812 0.500001L94.2811 3.2L97.8811 3.8L100.881 0.900001C101.081 0.700001 101.481 0.6 101.781 0.8L107.781 3.9L111.681 2.9L110.481 1.5C110.281 1.3 110.281 0.9 110.381 0.7C110.481 0.5 110.781 0.3 111.181 0.3L119.481 1.4C119.781 1.4 119.981 1.6 120.081 1.8L120.881 3.5L131.181 0.8C131.481 0.7 131.781 0.799999 131.981 1.1L133.981 4L135.881 4.4L137.381 1.1C137.481 0.899999 137.681 0.7 137.881 0.7C138.081 0.7 138.381 0.700001 138.581 0.900001L142.081 4.2C142.381 4.5 142.381 5 142.081 5.3C141.781 5.6 141.281 5.6 140.981 5.3L138.281 2.7L136.981 5.6C136.981 5.8 136.681 6 136.381 6Z" fill="#8DC63F"/>
<path d="M147.781 0.1H141.681V26.7L147.781 26.7C155.081 26.7 161.081 20.7 161.081 13.4C161.081 6.1 155.081 0.1 147.781 0.1Z" fill="url(#paint6_linear_1_675)"/>
<path d="M142.481 0.1H141.681V26.7L142.481 26.7V0.1Z" fill="#395F6F"/>
<path d="M151.881 8.9C153.081 8.9 153.981 8 153.981 6.8C153.981 5.6 153.081 4.7 151.881 4.7H142.381V8.9H151.881Z" fill="url(#paint7_linear_1_675)"/>
<defs>
<linearGradient id="paint0_linear_1_675" x1="80.4841" y1="26.6121" x2="80.4841" y2="-0.0879289" gradientUnits="userSpaceOnUse">
<stop offset="0.00381004" stop-color="#DFE5E8"/>
<stop offset="0.2" stop-color="#8CA0AA"/>
<stop offset="0.5166" stop-color="#90A2AD"/>
<stop offset="0.7704" stop-color="#9AABB5"/>
<stop offset="0.95" stop-color="#A7B6BF"/>
<stop offset="0.9568" stop-color="#8FA2AD"/>
<stop offset="0.966" stop-color="#788E9A"/>
<stop offset="0.9759" stop-color="#69818D"/>
<stop offset="0.9866" stop-color="#607985"/>
<stop offset="1" stop-color="#5D7683"/>
</linearGradient>
<linearGradient id="paint1_linear_1_675" x1="80.4841" y1="26.9113" x2="80.4841" y2="0.0977755" gradientUnits="userSpaceOnUse">
<stop offset="0.00381004" stop-color="#D5C117"/>
<stop offset="0.7" stop-color="#FFF200"/>
<stop offset="1" stop-color="#8DC63F"/>
</linearGradient>
<linearGradient id="paint2_linear_1_675" x1="80.4658" y1="26.656" x2="80.4658" y2="-0.0440657" gradientUnits="userSpaceOnUse">
<stop offset="0.00381004" stop-color="#DFE5E8"/>
<stop offset="0.1" stop-color="#8CA0AA"/>
<stop offset="0.2688" stop-color="#90A2AD"/>
<stop offset="0.4042" stop-color="#9AABB5"/>
<stop offset="0.5" stop-color="#A7B6BF"/>
<stop offset="0.5958" stop-color="#9AABB5"/>
<stop offset="0.7312" stop-color="#90A2AD"/>
<stop offset="0.9" stop-color="#8CA0AA"/>
<stop offset="1" stop-color="#5D7683"/>
</linearGradient>
<linearGradient id="paint3_linear_1_675" x1="0.340214" y1="13.5738" x2="161.525" y2="13.5738" gradientUnits="userSpaceOnUse">
<stop stop-color="white" stop-opacity="0.7"/>
<stop offset="1" stop-color="white" stop-opacity="0"/>
</linearGradient>
<linearGradient id="paint4_linear_1_675" x1="80.4841" y1="26.6121" x2="80.4841" y2="-0.0879289" gradientUnits="userSpaceOnUse">
<stop offset="0.00381004" stop-color="#DFE5E8"/>
<stop offset="0.2" stop-color="#8CA0AA"/>
<stop offset="0.5166" stop-color="#90A2AD"/>
<stop offset="0.7704" stop-color="#9AABB5"/>
<stop offset="0.95" stop-color="#A7B6BF"/>
<stop offset="0.9568" stop-color="#8FA2AD"/>
<stop offset="0.966" stop-color="#788E9A"/>
<stop offset="0.9759" stop-color="#69818D"/>
<stop offset="0.9866" stop-color="#607985"/>
<stop offset="1" stop-color="#5D7683"/>
</linearGradient>
<linearGradient id="paint5_linear_1_675" x1="80.4841" y1="26.9113" x2="80.4841" y2="0.0977755" gradientUnits="userSpaceOnUse">
<stop offset="0.00381004" stop-color="#D5C117"/>
<stop offset="0.7" stop-color="#FFF200"/>
<stop offset="1" stop-color="#8DC63F"/>
</linearGradient>
<linearGradient id="paint6_linear_1_675" x1="80.2549" y1="26.656" x2="80.2549" y2="-0.0440657" gradientUnits="userSpaceOnUse">
<stop offset="0.00381004" stop-color="#DFE5E8"/>
<stop offset="0.1" stop-color="#8CA0AA"/>
<stop offset="0.2688" stop-color="#90A2AD"/>
<stop offset="0.4042" stop-color="#9AABB5"/>
<stop offset="0.5" stop-color="#A7B6BF"/>
<stop offset="0.5958" stop-color="#9AABB5"/>
<stop offset="0.7312" stop-color="#90A2AD"/>
<stop offset="0.9" stop-color="#8CA0AA"/>
<stop offset="1" stop-color="#5D7683"/>
</linearGradient>
<linearGradient id="paint7_linear_1_675" x1="154.013" y1="6.8352" x2="142.406" y2="6.8352" gradientUnits="userSpaceOnUse">
<stop stop-color="white" stop-opacity="0.7"/>
<stop offset="1" stop-color="white" stop-opacity="0"/>
</linearGradient>
</defs>
</svg>
