<svg width="162" height="27" viewBox="0 0 162 27" fill="none" xmlns="http://www.w3.org/2000/svg">
<path d="M81.0671 13.5414H19.9329V26.8414H81.0671V13.5414Z" fill="url(#paint0_linear_1_674)"/>
<path d="M81.0671 6.34143H19.9329V13.4414H81.0671V6.34143Z" fill="url(#paint1_linear_1_674)"/>
<path d="M77.5738 6.14143C77.3683 6.14143 77.1628 6.04143 76.9573 5.94143L73.2584 2.04143L69.8678 5.64143C69.6623 5.84143 69.4568 5.94143 69.1485 5.84143L61.237 4.44143C60.8261 4.34143 60.6206 4.04143 60.6206 3.74143V2.64143L55.2777 5.54143C55.0722 5.64143 54.764 5.64143 54.5585 5.54143L47.7772 2.24143L40.6877 5.54143C40.4822 5.64143 40.1739 5.64143 39.8657 5.44143L35.6531 2.54143L31.235 5.64143C30.9268 5.84143 30.5158 5.84143 30.2075 5.54143L26.7141 1.74143L20.0356 4.24143C19.6246 4.34143 19.2136 4.24143 19.0081 3.84143C18.9054 3.44143 19.0081 3.04143 19.4191 2.84143L26.5086 0.141427C26.8169 0.041427 27.1251 0.141427 27.3306 0.341427L30.7213 4.04143L35.0366 0.941427C35.3449 0.741427 35.6531 0.741427 35.9613 0.941427L40.2767 3.94143L47.3662 0.641428C47.5717 0.541428 47.88 0.541428 48.0854 0.641428L54.8667 3.94143L61.0315 0.641428C61.237 0.541428 61.5453 0.541428 61.7508 0.641428C61.9563 0.741428 62.1618 1.04143 62.1618 1.24143V2.94143L69.0458 4.14143L72.7447 0.241427C72.8474 0.0414274 73.0529 0.0414276 73.3611 0.0414276C73.5666 0.0414276 73.7721 0.141427 73.8749 0.241427L77.6765 4.24143L80.6562 2.34143C80.9644 2.14143 81.4781 2.24143 81.6836 2.54143C81.8891 2.84143 81.7864 3.34143 81.4781 3.54143L77.882 5.84143C77.882 6.14143 77.6765 6.14143 77.5738 6.14143Z" fill="#8DC63F"/>
<path d="M19.9329 0.241427H13.6653C6.16479 0.241427 0 6.24143 0 13.5414C0 20.8414 6.16479 26.8414 13.6653 26.8414L19.9329 26.8414V0.241427Z" fill="url(#paint2_linear_1_674)"/>
<path d="M19.9329 0.241427H19.1109V26.8414L19.9329 26.8414V0.241427Z" fill="#395F6F"/>
<path d="M9.34996 9.04143C8.117 9.04143 7.19227 8.14143 7.19227 6.94143C7.19227 5.74143 8.117 4.84143 9.34996 4.84143H19.1109V9.04143H9.34996Z" fill="url(#paint3_linear_1_674)"/>
<path d="M141.288 13.5414H80.154V26.8414H141.288V13.5414Z" fill="url(#paint4_linear_1_674)"/>
<path d="M141.288 6.34143H80.154V13.4414H141.288V6.34143Z" fill="url(#paint5_linear_1_674)"/>
<path d="M137.795 6.14143C137.589 6.14143 137.384 6.04143 137.178 5.94143L133.48 2.04143L130.089 5.64143C129.883 5.84143 129.678 5.94143 129.37 5.84143L121.458 4.44143C121.047 4.34143 120.842 4.04143 120.842 3.74143V2.64143L115.499 5.54143C115.293 5.64143 114.985 5.64143 114.78 5.54143L107.998 2.24143L100.909 5.54143C100.703 5.64143 100.395 5.64143 100.087 5.44143L95.8743 2.54143L91.4562 5.64143C91.1479 5.84143 90.7369 5.84143 90.4287 5.54143L86.9353 1.74143L80.2568 4.24143C79.8458 4.34143 79.4348 4.24143 79.2293 3.84143C79.1266 3.44143 79.2293 3.04143 79.6403 2.84143L86.7298 0.141427C87.0381 0.041427 87.3463 0.141427 87.5518 0.341427L90.9424 4.04143L95.2578 0.941427C95.5661 0.741427 95.8743 0.741427 96.1825 0.941427L100.498 3.94143L107.587 0.641428C107.793 0.541428 108.101 0.541428 108.307 0.641428L115.088 3.94143L121.253 0.641428C121.458 0.541428 121.766 0.541428 121.972 0.641428C122.177 0.741428 122.383 1.04143 122.383 1.24143V2.94143L129.267 4.14143L132.966 0.241427C133.069 0.0414274 133.274 0.0414276 133.582 0.0414276C133.788 0.0414276 133.993 0.141427 134.096 0.241427L137.898 4.24143L140.877 2.34143C141.186 2.14143 141.699 2.24143 141.905 2.54143C142.11 2.84143 142.008 3.34143 141.699 3.54143L138.103 5.84143C138.103 6.14143 137.898 6.14143 137.795 6.14143Z" fill="#8DC63F"/>
<path d="M147.556 0.241427H141.288V26.8414L147.556 26.8414C155.056 26.8414 161.221 20.8414 161.221 13.5414C161.221 6.24143 155.056 0.241427 147.556 0.241427Z" fill="url(#paint6_linear_1_674)"/>
<path d="M142.11 0.241427H141.288V26.8414L142.11 26.8414V0.241427Z" fill="#395F6F"/>
<path d="M151.871 9.04143C153.104 9.04143 154.029 8.14143 154.029 6.94143C154.029 5.74143 153.104 4.84143 151.871 4.84143H142.11V9.04143H151.871Z" fill="url(#paint7_linear_1_674)"/>
<defs>
<linearGradient id="paint0_linear_1_674" x1="80.6401" y1="26.7532" x2="80.6401" y2="-0.0468306" gradientUnits="userSpaceOnUse">
<stop offset="0.00381004" stop-color="#DFE5E8"/>
<stop offset="0.2" stop-color="#8CA0AA"/>
<stop offset="0.5166" stop-color="#90A2AD"/>
<stop offset="0.7704" stop-color="#9AABB5"/>
<stop offset="0.95" stop-color="#A7B6BF"/>
<stop offset="0.9568" stop-color="#8FA2AD"/>
<stop offset="0.966" stop-color="#788E9A"/>
<stop offset="0.9759" stop-color="#69818D"/>
<stop offset="0.9866" stop-color="#607985"/>
<stop offset="1" stop-color="#5D7683"/>
</linearGradient>
<linearGradient id="paint1_linear_1_674" x1="80.6401" y1="27.0536" x2="80.6401" y2="0.139569" gradientUnits="userSpaceOnUse">
<stop offset="0.00381004" stop-color="#D5C117"/>
<stop offset="0.7" stop-color="#FFF200"/>
<stop offset="1" stop-color="#8DC63F"/>
</linearGradient>
<linearGradient id="paint2_linear_1_674" x1="80.6156" y1="26.7973" x2="80.6156" y2="-0.00280309" gradientUnits="userSpaceOnUse">
<stop offset="0.00381004" stop-color="#DFE5E8"/>
<stop offset="0.1" stop-color="#8CA0AA"/>
<stop offset="0.2688" stop-color="#90A2AD"/>
<stop offset="0.4042" stop-color="#9AABB5"/>
<stop offset="0.5" stop-color="#A7B6BF"/>
<stop offset="0.5958" stop-color="#9AABB5"/>
<stop offset="0.7312" stop-color="#90A2AD"/>
<stop offset="0.9" stop-color="#8CA0AA"/>
<stop offset="1" stop-color="#5D7683"/>
</linearGradient>
<linearGradient id="paint3_linear_1_674" x1="0.473935" y1="13.666" x2="161.799" y2="13.666" gradientUnits="userSpaceOnUse">
<stop stop-color="white" stop-opacity="0.7"/>
<stop offset="1" stop-color="white" stop-opacity="0"/>
</linearGradient>
<linearGradient id="paint4_linear_1_674" x1="80.6401" y1="26.7532" x2="80.6401" y2="-0.0468306" gradientUnits="userSpaceOnUse">
<stop offset="0.00381004" stop-color="#DFE5E8"/>
<stop offset="0.2" stop-color="#8CA0AA"/>
<stop offset="0.5166" stop-color="#90A2AD"/>
<stop offset="0.7704" stop-color="#9AABB5"/>
<stop offset="0.95" stop-color="#A7B6BF"/>
<stop offset="0.9568" stop-color="#8FA2AD"/>
<stop offset="0.966" stop-color="#788E9A"/>
<stop offset="0.9759" stop-color="#69818D"/>
<stop offset="0.9866" stop-color="#607985"/>
<stop offset="1" stop-color="#5D7683"/>
</linearGradient>
<linearGradient id="paint5_linear_1_674" x1="80.6401" y1="27.0536" x2="80.6401" y2="0.139569" gradientUnits="userSpaceOnUse">
<stop offset="0.00381004" stop-color="#D5C117"/>
<stop offset="0.7" stop-color="#FFF200"/>
<stop offset="1" stop-color="#8DC63F"/>
</linearGradient>
<linearGradient id="paint6_linear_1_674" x1="80.7876" y1="26.7973" x2="80.7876" y2="-0.00280309" gradientUnits="userSpaceOnUse">
<stop offset="0.00381004" stop-color="#DFE5E8"/>
<stop offset="0.1" stop-color="#8CA0AA"/>
<stop offset="0.2688" stop-color="#90A2AD"/>
<stop offset="0.4042" stop-color="#9AABB5"/>
<stop offset="0.5" stop-color="#A7B6BF"/>
<stop offset="0.5958" stop-color="#9AABB5"/>
<stop offset="0.7312" stop-color="#90A2AD"/>
<stop offset="0.9" stop-color="#8CA0AA"/>
<stop offset="1" stop-color="#5D7683"/>
</linearGradient>
<linearGradient id="paint7_linear_1_674" x1="154.016" y1="6.97663" x2="142.09" y2="6.97663" gradientUnits="userSpaceOnUse">
<stop stop-color="white" stop-opacity="0.7"/>
<stop offset="1" stop-color="white" stop-opacity="0"/>
</linearGradient>
</defs>
</svg>
