<svg width="161" height="27" viewBox="0 0 161 27" fill="none" xmlns="http://www.w3.org/2000/svg">
<path d="M81.3 13.5414H19.4V26.8414H81.3V13.5414Z" fill="url(#paint0_linear_1_676)"/>
<path d="M81.3 6.34142H19.4V13.4414H81.3V6.34142Z" fill="url(#paint1_linear_1_676)"/>
<path d="M21.8 6.14142H21.7L18.5 5.64142C18.1 5.54142 17.8 5.14142 17.9 4.74142C18 4.34142 18.4 4.04142 18.8 4.14142L21.4 4.54142L22.6 1.34142C22.7 0.941421 23.2 0.741421 23.5 0.841421L31.5 3.44142L32.6 1.24142C32.7 1.04142 32.9 0.941421 33.1 0.841421C33.3 0.741421 33.5 0.841421 33.7 0.941421L38 3.44142C38.2 3.54142 38.4 3.84142 38.4 4.04142C38.4 4.14142 38.4 4.14142 38.4 4.24142L41.7 4.54142L42.4 1.34142C42.5 0.941421 42.9 0.64142 43.3 0.74142L49.4 2.04142L52.3 0.141421C52.5 0.0414209 52.7 -0.0585785 52.9 0.0414215C53.1 0.141421 53.3 0.241421 53.4 0.441421L54.6 3.44142L55.7 1.74142C55.9 1.44142 56.4 1.24142 56.7 1.54142L60.2 3.74142L64 1.24142C64.1 1.14142 64.2 1.14142 64.4 1.14142L74.6 0.74142C74.8 0.74142 75.1 0.841422 75.2 1.04142C75.3 1.24142 75.4 1.54142 75.3 1.74142L74.6 3.34142L76.2 3.54142L81 1.04142C81.4 0.841422 81.8 1.04142 82 1.34142C82.2 1.74142 82 2.14142 81.7 2.34142L76.7 4.94142C76.6 5.04142 76.4 5.04142 76.3 5.04142L73.5 4.74142C73.3 4.74142 73.1 4.54142 72.9 4.34142C72.8 4.14142 72.8 3.84142 72.8 3.64142L73.4 2.14142L64.6 2.44142L60.6 5.14142C60.4 5.34142 60 5.34142 59.8 5.14142L56.5 3.14142L55 5.44142C54.8 5.64142 54.6 5.84142 54.3 5.74142C54 5.74142 53.8 5.54142 53.7 5.24142L52.3 1.64142L49.9 3.14142C49.7 3.24142 49.5 3.24142 49.3 3.24142L43.7 2.04142L43 5.14142C42.9 5.54142 42.6 5.74142 42.2 5.74142L36.5 5.24142C36.2 5.24142 35.9 4.94142 35.8 4.64142C35.7 4.34142 35.8 4.04142 36.1 3.84142L36.2 3.74142L33.6 2.24142L32.6 4.34142C32.4 4.64142 32.1 4.84142 31.7 4.74142L23.8 2.14142L22.6 5.24142C22.4 5.94142 22.1 6.14142 21.8 6.14142Z" fill="#8DC63F"/>
<path d="M19.4 0.241422H13.3C5.99999 0.241422 0 6.24142 0 13.5414C0 20.8414 5.99999 26.8414 13.3 26.8414H19.4V0.241422Z" fill="url(#paint2_linear_1_676)"/>
<path d="M19.5 0.241422H18.7V26.8414H19.5V0.241422Z" fill="#395F6F"/>
<path d="M9.20001 9.04142C8.00001 9.04142 7.10001 8.14142 7.10001 6.94142C7.10001 5.74142 8.00001 4.84142 9.20001 4.84142H18.7V9.04142H9.20001Z" fill="url(#paint3_linear_1_676)"/>
<path d="M141.419 13.5414H79.5194V26.8414H141.419V13.5414Z" fill="url(#paint4_linear_1_676)"/>
<path d="M141.419 6.34142H79.5194V13.4414H141.419V6.34142Z" fill="url(#paint5_linear_1_676)"/>
<path d="M81.9194 6.14142H81.8194L78.6194 5.64142C78.2194 5.54142 77.9194 5.14142 78.0194 4.74142C78.1194 4.34142 78.5194 4.04142 78.9194 4.14142L81.5194 4.54142L82.7194 1.34142C82.8194 0.941421 83.3194 0.741421 83.6194 0.841421L91.6194 3.44142L92.7194 1.24142C92.8194 1.04142 93.0194 0.941421 93.2194 0.841421C93.4194 0.741421 93.6194 0.841421 93.8194 0.941421L98.1194 3.44142C98.3194 3.54142 98.5194 3.84142 98.5194 4.04142C98.5194 4.14142 98.5194 4.14142 98.5194 4.24142L101.819 4.54142L102.519 1.34142C102.619 0.941421 103.019 0.64142 103.419 0.74142L109.519 2.04142L112.419 0.141421C112.619 0.0414209 112.819 -0.0585785 113.019 0.0414215C113.219 0.141421 113.419 0.241421 113.519 0.441421L114.719 3.44142L115.819 1.74142C116.019 1.44142 116.519 1.24142 116.819 1.54142L120.319 3.74142L124.119 1.24142C124.219 1.14142 124.319 1.14142 124.519 1.14142L134.719 0.74142C134.919 0.74142 135.219 0.841422 135.319 1.04142C135.419 1.24142 135.519 1.54142 135.419 1.74142L134.719 3.34142L136.319 3.54142L141.119 1.04142C141.519 0.841422 141.919 1.04142 142.119 1.34142C142.319 1.74142 142.119 2.14142 141.819 2.34142L136.819 4.94142C136.719 5.04142 136.519 5.04142 136.419 5.04142L133.619 4.74142C133.419 4.74142 133.219 4.54142 133.019 4.34142C132.919 4.14142 132.919 3.84142 132.919 3.64142L133.519 2.14142L124.719 2.44142L120.719 5.14142C120.519 5.34142 120.119 5.34142 119.919 5.14142L116.619 3.14142L115.119 5.44142C114.919 5.64142 114.719 5.84142 114.419 5.74142C114.119 5.74142 113.919 5.54142 113.819 5.24142L112.419 1.64142L110.019 3.14142C109.819 3.24142 109.619 3.24142 109.419 3.24142L103.819 2.04142L103.119 5.14142C103.019 5.54142 102.719 5.74142 102.319 5.74142L96.6194 5.24142C96.3194 5.24142 96.0194 4.94142 95.9194 4.64142C95.8194 4.34142 95.9194 4.04142 96.2194 3.84142L96.3194 3.74142L93.7194 2.24142L92.7194 4.34142C92.5194 4.64142 92.2194 4.84142 91.8194 4.74142L83.9194 2.14142L82.7194 5.24142C82.5194 5.94142 82.2194 6.14142 81.9194 6.14142Z" fill="#8DC63F"/>
<path d="M147.519 0.241422H141.419V26.8414H147.519C154.819 26.8414 160.819 20.8414 160.819 13.5414C160.819 6.24142 154.819 0.241422 147.519 0.241422Z" fill="url(#paint6_linear_1_676)"/>
<path d="M142.219 0.241422H141.419V26.8414H142.219V0.241422Z" fill="#395F6F"/>
<path d="M151.619 9.04142C152.819 9.04142 153.719 8.14142 153.719 6.94142C153.719 5.74142 152.819 4.84142 151.619 4.84142H142.119V9.04142H151.619Z" fill="url(#paint7_linear_1_676)"/>
<defs>
<linearGradient id="paint0_linear_1_676" x1="80.4019" y1="26.753" x2="80.4019" y2="-0.0883946" gradientUnits="userSpaceOnUse">
<stop offset="0.00381004" stop-color="#DFE5E8"/>
<stop offset="0.2" stop-color="#8CA0AA"/>
<stop offset="0.5166" stop-color="#90A2AD"/>
<stop offset="0.7704" stop-color="#9AABB5"/>
<stop offset="0.95" stop-color="#A7B6BF"/>
<stop offset="0.9568" stop-color="#8FA2AD"/>
<stop offset="0.966" stop-color="#788E9A"/>
<stop offset="0.9759" stop-color="#69818D"/>
<stop offset="0.9866" stop-color="#607985"/>
<stop offset="1" stop-color="#5D7683"/>
</linearGradient>
<linearGradient id="paint1_linear_1_676" x1="80.4019" y1="27.0539" x2="80.4019" y2="0.0982934" gradientUnits="userSpaceOnUse">
<stop offset="0.00381004" stop-color="#D5C117"/>
<stop offset="0.7" stop-color="#FFF200"/>
<stop offset="1" stop-color="#8DC63F"/>
</linearGradient>
<linearGradient id="paint2_linear_1_676" x1="80.4901" y1="26.7972" x2="80.4901" y2="-0.0442991" gradientUnits="userSpaceOnUse">
<stop offset="0.00381004" stop-color="#DFE5E8"/>
<stop offset="0.1" stop-color="#8CA0AA"/>
<stop offset="0.2688" stop-color="#90A2AD"/>
<stop offset="0.4042" stop-color="#9AABB5"/>
<stop offset="0.5" stop-color="#A7B6BF"/>
<stop offset="0.5958" stop-color="#9AABB5"/>
<stop offset="0.7312" stop-color="#90A2AD"/>
<stop offset="0.9" stop-color="#8CA0AA"/>
<stop offset="1" stop-color="#5D7683"/>
</linearGradient>
<linearGradient id="paint3_linear_1_676" x1="-0.786074" y1="13.6457" x2="160.136" y2="13.6457" gradientUnits="userSpaceOnUse">
<stop stop-color="white" stop-opacity="0.7"/>
<stop offset="1" stop-color="white" stop-opacity="0"/>
</linearGradient>
<linearGradient id="paint4_linear_1_676" x1="80.4019" y1="26.753" x2="80.4019" y2="-0.0883946" gradientUnits="userSpaceOnUse">
<stop offset="0.00381004" stop-color="#DFE5E8"/>
<stop offset="0.2" stop-color="#8CA0AA"/>
<stop offset="0.5166" stop-color="#90A2AD"/>
<stop offset="0.7704" stop-color="#9AABB5"/>
<stop offset="0.95" stop-color="#A7B6BF"/>
<stop offset="0.9568" stop-color="#8FA2AD"/>
<stop offset="0.966" stop-color="#788E9A"/>
<stop offset="0.9759" stop-color="#69818D"/>
<stop offset="0.9866" stop-color="#607985"/>
<stop offset="1" stop-color="#5D7683"/>
</linearGradient>
<linearGradient id="paint5_linear_1_676" x1="80.4019" y1="27.0539" x2="80.4019" y2="0.0982934" gradientUnits="userSpaceOnUse">
<stop offset="0.00381004" stop-color="#D5C117"/>
<stop offset="0.7" stop-color="#FFF200"/>
<stop offset="1" stop-color="#8DC63F"/>
</linearGradient>
<linearGradient id="paint6_linear_1_676" x1="80.2795" y1="26.7972" x2="80.2795" y2="-0.0442991" gradientUnits="userSpaceOnUse">
<stop offset="0.00381004" stop-color="#DFE5E8"/>
<stop offset="0.1" stop-color="#8CA0AA"/>
<stop offset="0.2688" stop-color="#90A2AD"/>
<stop offset="0.4042" stop-color="#9AABB5"/>
<stop offset="0.5" stop-color="#A7B6BF"/>
<stop offset="0.5958" stop-color="#9AABB5"/>
<stop offset="0.7312" stop-color="#90A2AD"/>
<stop offset="0.9" stop-color="#8CA0AA"/>
<stop offset="1" stop-color="#5D7683"/>
</linearGradient>
<linearGradient id="paint7_linear_1_676" x1="153.77" y1="6.97662" x2="142.163" y2="6.97662" gradientUnits="userSpaceOnUse">
<stop stop-color="white" stop-opacity="0.7"/>
<stop offset="1" stop-color="white" stop-opacity="0"/>
</linearGradient>
</defs>
</svg>
